<svg xmlns="http://www.w3.org/2000/svg" xmlns:xlink="http://www.w3.org/1999/xlink" xml:space="preserve" width="1024" height="1024" viewBox="0 0 270.933 270.933"><defs><linearGradient id="b"><stop offset="0" style="stop-color:#d2fcf9;stop-opacity:1"/><stop offset="1" style="stop-color:#fdfdfd;stop-opacity:1"/></linearGradient><linearGradient id="a"><stop offset="0" style="stop-color:#01bbc4;stop-opacity:1"/><stop offset="1" style="stop-color:#4eecd6;stop-opacity:1"/></linearGradient><linearGradient xlink:href="#a" id="c" x1="308.593" x2="308.593" y1="232.352" y2="38.986" gradientTransform="matrix(1.22082 0 0 1.23774 -241.268 -32.457)" gradientUnits="userSpaceOnUse"/><linearGradient xlink:href="#b" id="e" x1="110.519" x2="109.568" y1="219.627" y2="91.645" gradientTransform="matrix(1.22082 0 0 1.23774 -2.502 -57.17)" gradientUnits="userSpaceOnUse"/><linearGradient xlink:href="#b" id="f" x1="110.519" x2="109.568" y1="219.627" y2="91.645" gradientTransform="matrix(1.22082 0 0 1.23774 -2.502 -57.17)" gradientUnits="userSpaceOnUse"/><linearGradient xlink:href="#b" id="g" x1="110.519" x2="109.568" y1="219.627" y2="91.645" gradientTransform="matrix(1.22082 0 0 1.23774 -2.502 -57.17)" gradientUnits="userSpaceOnUse"/><filter id="d" width="1.12" height="1.12" x="-.06" y="-.06" style="color-interpolation-filters:sRGB"><feFlood flood-color="#000" flood-opacity=".169" result="flood"/><feGaussianBlur in="SourceGraphic" result="blur" stdDeviation="6"/><feOffset in="blur" result="offset"/><feComposite in="flood" in2="offset" operator="in" result="comp1"/><feComposite in="SourceGraphic" in2="comp1" result="comp2"/></filter></defs><rect width="239.338" height="239.338" x="15.798" y="15.798" ry="52.795" style="fill:url(#c);stroke:none;stroke-width:.4917;stroke-linecap:round;stroke-linejoin:round;stroke-dasharray:none;stroke-opacity:1;filter:url(#d)"/><path d="M194.872 150.757c-24.776 18.809-78.29 46.224-124.902 45.56v6.055c0 6.814 5.41 12.3 12.13 12.3h100.642c6.72 0 12.13-5.486 12.13-12.3z" style="fill:url(#e);fill-opacity:1;stroke:#b7b7b7;stroke-width:0;stroke-linecap:round;stroke-linejoin:round;stroke-dasharray:none;stroke-opacity:1" transform="translate(2.646)"/><path d="M82.1 56.262c-6.72 0-12.13 5.485-12.13 12.299v102.112c3.37.683 7.98 1.113 11.551 1.093 32.477-.067 96.976-32.845 113.351-50.937v-26.4c-.348-3.281-1.036-6.729-4.8-10.568l-22.565-22.487c-2.876-2.595-6.426-4.488-10.483-5.112z" style="fill:url(#f);fill-opacity:1;stroke:#b7b7b7;stroke-width:0;stroke-linecap:round;stroke-linejoin:round;stroke-dasharray:none;stroke-opacity:1" transform="translate(2.646)"/><path d="M65.242 142.416a153 153 0 0 0 .103 6.256c-5.007 5.82-7.558 11.92-7.535 15.693.108 12.06 15.359 13.612 22.812 13.304 37.159-.578 128.298-40.947 128.833-74.475.09-3.805-3.96-11.575-10.825-11.536-.22-2.064-.669-4.128-1.906-6.17 8.797-.001 28.725.034 28.93 15.62.066 42.615-107.286 90.226-152.746 89.711-11.239-.01-27.582-2.056-27.628-15.74-.015-6.821 2.57-15.473 19.962-32.663" style="fill:url(#g);fill-opacity:1;stroke:#b7b7b7;stroke-width:0;stroke-linecap:round;stroke-linejoin:round;stroke-dasharray:none;stroke-opacity:1" transform="translate(2.646)"/></svg>